<?xml version="1.0" standalone="no"?>
<!DOCTYPE svg PUBLIC "-//W3C//DTD SVG 20010904//EN"
 "http://www.w3.org/TR/2001/REC-SVG-20010904/DTD/svg10.dtd">
<svg version="1.0" xmlns="http://www.w3.org/2000/svg"
 width="100.000000pt" height="100.000000pt" viewBox="0 0 100.000000 100.000000"
 preserveAspectRatio="xMidYMid meet">
<metadata>
Created by potrace 1.16, written by Peter Selinger 2001-2019
</metadata>
<g transform="translate(0.000000,100.000000) scale(0.100000,-0.100000)"
fill="#000000" stroke="none">
<path d="M455 858 c-25 -19 -27 -25 -21 -69 6 -40 4 -48 -12 -53 -25 -8 -86
-73 -111 -119 -35 -63 -27 -140 19 -192 18 -19 18 -21 -1 -59 -10 -22 -19 -49
-19 -61 0 -23 38 -65 58 -65 7 0 12 -4 12 -10 0 -10 -35 -17 -126 -23 -94 -7
-156 -50 -122 -84 11 -10 49 -11 191 -3 107 5 247 5 354 0 142 -8 180 -7 191
3 34 34 -28 77 -122 84 -91 6 -126 13 -126 23 0 6 7 10 15 10 21 0 55 40 55
65 0 12 -9 39 -19 61 -19 38 -19 40 -1 59 46 52 54 129 19 192 -25 46 -86 111
-111 119 -16 5 -18 12 -12 49 5 38 3 47 -19 69 -32 32 -56 33 -92 4z m78 -38
c5 -20 -15 -50 -33 -50 -18 0 -38 30 -33 50 4 14 14 20 33 20 19 0 29 -6 33
-20z m27 -115 c53 -33 79 -62 102 -113 24 -54 17 -110 -19 -143 -23 -22 -32
-24 -144 -24 -116 0 -119 1 -146 27 -23 23 -27 36 -27 81 0 64 34 119 104 166
55 37 79 38 130 6z m62 -332 c10 -9 18 -20 18 -25 0 -4 -63 -8 -140 -8 -77 0
-140 3 -140 7 0 3 7 15 17 25 23 26 217 27 245 1z m16 -84 c2 -11 -11 -19 -48
-27 -113 -26 -263 2 -223 42 4 3 66 5 137 4 109 -3 131 -6 134 -19z m44 -107
c198 -13 123 -22 -183 -21 -197 0 -299 3 -289 9 8 5 58 10 110 11 52 0 104 5
115 10 11 5 47 6 80 3 33 -3 108 -9 167 -12z"/>
<path d="M482 625 c-7 -15 -20 -25 -33 -25 -27 0 -20 -24 8 -28 13 -2 24 -13
27 -28 8 -31 24 -31 32 0 3 15 14 26 27 28 28 4 35 28 8 28 -13 0 -26 10 -33
25 -6 14 -14 25 -18 25 -4 0 -12 -11 -18 -25z"/>
</g>
</svg>
