<?xml version="1.0" standalone="no"?>
<!DOCTYPE svg PUBLIC "-//W3C//DTD SVG 20010904//EN"
 "http://www.w3.org/TR/2001/REC-SVG-20010904/DTD/svg10.dtd">
<svg version="1.0" xmlns="http://www.w3.org/2000/svg"
 width="100.000000pt" height="100.000000pt" viewBox="0 0 100.000000 100.000000"
 preserveAspectRatio="xMidYMid meet">
<metadata>
Created by potrace 1.16, written by Peter Selinger 2001-2019
</metadata>
<g transform="translate(0.000000,100.000000) scale(0.100000,-0.100000)"
fill="#000000" stroke="none">
<path d="M485 860 c-3 -11 -15 -20 -26 -20 -25 0 -25 -30 0 -37 33 -9 32 -32
-4 -72 -19 -21 -35 -41 -35 -44 0 -3 -4 -17 -9 -30 -9 -24 -11 -25 -48 -11
-21 7 -53 13 -72 14 -40 0 -101 -20 -101 -33 0 -5 8 -6 18 -1 71 31 164 3 245
-75 l47 -45 48 45 c80 78 173 106 245 75 9 -5 17 -4 17 1 0 13 -61 33 -101 33
-19 -1 -51 -7 -72 -14 -34 -13 -38 -12 -47 4 -6 10 -10 24 -10 31 0 6 -16 29
-35 50 -36 40 -37 63 -4 72 25 7 25 37 0 37 -11 0 -23 9 -26 20 -3 11 -10 20
-15 20 -5 0 -12 -9 -15 -20z"/>
<path d="M160 609 c0 -5 5 -7 10 -4 6 3 10 8 10 11 0 2 -4 4 -10 4 -5 0 -10
-5 -10 -11z"/>
<path d="M825 610 c3 -5 8 -10 11 -10 2 0 4 5 4 10 0 6 -5 10 -11 10 -5 0 -7
-4 -4 -10z"/>
<path d="M191 569 c-36 -36 -39 -61 -10 -108 32 -53 108 -109 129 -96 16 10
120 35 145 35 31 0 36 10 25 51 -21 77 -123 149 -209 149 -42 0 -54 -5 -80
-31z"/>
<path d="M631 575 c-55 -32 -98 -80 -111 -124 -11 -41 -6 -51 25 -51 26 0 129
-25 145 -35 21 -13 109 55 136 107 21 41 17 63 -17 97 -26 27 -38 31 -82 31
-37 0 -65 -8 -96 -25z"/>
<path d="M123 510 c0 -25 2 -35 4 -22 2 12 2 32 0 45 -2 12 -4 2 -4 -23z"/>
<path d="M873 510 c0 -25 2 -35 4 -22 2 12 2 32 0 45 -2 12 -4 2 -4 -23z"/>
<path d="M429 360 c-54 -7 -145 -35 -163 -51 -5 -4 -6 -14 -3 -23 5 -12 13
-12 59 7 77 31 279 31 356 0 46 -19 54 -19 59 -7 8 21 -3 28 -72 51 -71 24
-159 33 -236 23z"/>
<path d="M385 276 c-68 -17 -125 -43 -125 -55 0 -21 21 -21 81 -1 86 28 232
28 319 -1 44 -14 66 -17 73 -10 16 16 0 28 -69 52 -73 27 -209 34 -279 15z"/>
<path d="M415 204 c-16 -3 -52 -12 -79 -21 -43 -14 -46 -17 -33 -31 29 -29 90
-42 197 -42 107 0 168 13 196 42 14 14 11 17 -33 32 -49 17 -193 28 -248 20z"/>
</g>
</svg>
