<?xml version="1.0" standalone="no"?>
<!DOCTYPE svg PUBLIC "-//W3C//DTD SVG 20010904//EN"
 "http://www.w3.org/TR/2001/REC-SVG-20010904/DTD/svg10.dtd">
<svg version="1.0" xmlns="http://www.w3.org/2000/svg"
 width="100.000000pt" height="100.000000pt" viewBox="0 0 100.000000 100.000000"
 preserveAspectRatio="xMidYMid meet">
<metadata>
Created by potrace 1.16, written by Peter Selinger 2001-2019
</metadata>
<g transform="translate(0.000000,100.000000) scale(0.100000,-0.100000)"
fill="#000000" stroke="none">
<path d="M425 820 c-16 -16 -32 -30 -35 -30 -4 0 -19 11 -34 25 -50 47 -72 33
-67 -42 2 -21 -6 -43 -22 -65 -63 -83 -137 -236 -144 -293 -6 -62 21 -105 67
-105 16 0 32 -4 35 -10 14 -23 52 -7 110 48 67 62 140 122 149 122 3 0 6 -13
6 -29 0 -30 -35 -89 -79 -130 -58 -56 -83 -98 -84 -148 l-2 -48 265 0 265 0
-1 130 c-1 204 -43 346 -129 438 -38 40 -116 83 -172 95 -26 5 -41 16 -53 37
-22 40 -40 41 -75 5z m45 -39 c0 -15 11 -22 52 -30 204 -44 283 -172 303 -489
4 -65 2 -98 -6 -108 -18 -22 -447 -21 -455 1 -12 29 7 65 64 125 73 79 93 117
103 199 4 36 11 79 15 94 6 25 4 28 -12 25 -11 -2 -20 -13 -22 -25 -4 -28 -55
-82 -149 -156 -40 -32 -73 -62 -73 -67 0 -18 -18 -10 -23 10 -7 26 -33 26 -47
0 -6 -11 -17 -20 -25 -20 -18 0 -45 39 -45 65 0 29 60 150 121 246 29 44 52
93 53 109 l1 27 24 -18 c32 -26 57 -24 78 6 22 29 43 32 43 6z"/>
<path d="M303 670 c-19 -30 -16 -60 6 -60 23 0 40 19 43 51 4 31 -32 38 -49 9z"/>
<path d="M180 426 c0 -20 5 -26 21 -26 15 0 20 5 17 22 -5 34 -38 37 -38 4z"/>
</g>
</svg>
