<?xml version="1.0" standalone="no"?>
<!DOCTYPE svg PUBLIC "-//W3C//DTD SVG 20010904//EN"
 "http://www.w3.org/TR/2001/REC-SVG-20010904/DTD/svg10.dtd">
<svg version="1.0" xmlns="http://www.w3.org/2000/svg"
 width="100.000000pt" height="100.000000pt" viewBox="0 0 100.000000 100.000000"
 preserveAspectRatio="xMidYMid meet">
<metadata>
Created by potrace 1.16, written by Peter Selinger 2001-2019
</metadata>
<g transform="translate(0.000000,100.000000) scale(0.100000,-0.100000)"
fill="#000000" stroke="none">
<path d="M485 860 c-3 -11 -15 -20 -26 -20 -25 0 -25 -30 0 -37 33 -9 32 -32
-4 -72 -19 -21 -35 -41 -35 -44 0 -3 -4 -17 -10 -31 -9 -25 -10 -25 -44 -11
-92 39 -203 0 -240 -83 -28 -63 -11 -110 70 -188 l63 -60 3 -74 c3 -70 4 -74
33 -89 61 -33 107 -42 205 -42 98 0 144 9 205 42 28 15 30 19 35 92 l5 76 56
50 c37 33 62 65 73 96 17 44 17 49 1 92 -33 86 -146 128 -241 88 -34 -14 -35
-14 -44 11 -6 14 -10 28 -10 31 0 3 -16 23 -35 44 -36 40 -37 63 -4 72 25 7
25 37 0 37 -11 0 -23 9 -26 20 -3 11 -10 20 -15 20 -5 0 -12 -9 -15 -20z m58
-183 c10 -21 14 -43 9 -58 -8 -28 -44 -89 -52 -89 -8 0 -44 61 -52 89 -5 15
-1 37 9 58 12 26 21 33 43 33 22 0 31 -7 43 -33z m-158 -82 c51 -30 84 -74 94
-128 10 -54 5 -67 -24 -67 -13 0 -50 -7 -82 -16 -100 -28 -102 -28 -136 -4
-59 41 -82 79 -82 133 0 44 4 52 34 78 19 15 43 30 55 33 38 8 100 -5 141 -29z
m421 0 c60 -46 57 -118 -8 -184 -44 -44 -76 -58 -105 -46 -35 14 -124 35 -148
35 -29 0 -34 13 -24 67 25 130 187 203 285 128z m-159 -252 c50 -15 73 -36 52
-48 -5 -4 -26 -1 -47 7 -22 8 -83 13 -152 13 -69 0 -130 -5 -152 -13 -21 -8
-42 -11 -47 -7 -18 10 -1 31 37 45 85 31 212 32 309 3z m-7 -72 c50 -15 78
-37 64 -50 -7 -8 -24 -7 -60 4 -64 19 -224 19 -288 0 -26 -8 -52 -12 -57 -9
-27 16 7 40 86 61 56 14 199 11 255 -6z m1 -81 c30 -16 23 -27 -25 -39 -57
-14 -175 -14 -232 0 -65 17 -56 37 21 51 52 9 211 1 236 -12z"/>
</g>
</svg>
