<?xml version="1.0" standalone="no"?>
<!DOCTYPE svg PUBLIC "-//W3C//DTD SVG 20010904//EN"
 "http://www.w3.org/TR/2001/REC-SVG-20010904/DTD/svg10.dtd">
<svg version="1.0" xmlns="http://www.w3.org/2000/svg"
 width="100.000000pt" height="100.000000pt" viewBox="0 0 100.000000 100.000000"
 preserveAspectRatio="xMidYMid meet">
<metadata>
Created by potrace 1.16, written by Peter Selinger 2001-2019
</metadata>
<g transform="translate(0.000000,100.000000) scale(0.100000,-0.100000)"
fill="#000000" stroke="none">
<path d="M465 808 c-51 -28 -65 -50 -65 -104 0 -36 -5 -56 -17 -65 -41 -35
-54 -115 -26 -173 l16 -35 -50 -54 c-54 -60 -93 -154 -93 -227 l0 -40 270 0
270 0 0 40 c0 73 -39 167 -93 227 l-50 54 16 35 c28 58 15 138 -26 173 -12 9
-17 29 -17 65 0 42 -5 57 -22 73 -47 42 -78 51 -113 31z"/>
</g>
</svg>
