<?xml version="1.0" standalone="no"?>
<!DOCTYPE svg PUBLIC "-//W3C//DTD SVG 20010904//EN"
 "http://www.w3.org/TR/2001/REC-SVG-20010904/DTD/svg10.dtd">
<svg version="1.0" xmlns="http://www.w3.org/2000/svg"
 width="100.000000pt" height="100.000000pt" viewBox="0 0 100.000000 100.000000"
 preserveAspectRatio="xMidYMid meet">
<metadata>
Created by potrace 1.16, written by Peter Selinger 2001-2019
</metadata>
<g transform="translate(0.000000,100.000000) scale(0.100000,-0.100000)"
fill="#000000" stroke="none">
<path d="M465 808 c-51 -28 -65 -50 -65 -104 0 -36 -5 -56 -17 -65 -42 -35
-54 -115 -26 -173 l16 -35 -47 -51 c-57 -61 -85 -124 -93 -207 l-6 -63 273 0
273 0 -6 63 c-8 81 -38 149 -95 209 l-45 49 16 35 c28 58 16 138 -26 173 -12
9 -17 29 -17 65 0 42 -5 57 -22 73 -47 42 -78 51 -113 31z m85 -50 c22 -24 25
-44 11 -81 -8 -20 -4 -29 25 -56 30 -29 34 -39 34 -83 0 -39 -6 -59 -26 -85
-24 -32 -25 -53 -2 -53 50 0 138 -140 138 -219 l0 -41 -230 0 -230 0 0 41 c0
79 88 219 138 219 23 0 22 21 -2 53 -20 26 -26 46 -26 85 0 44 4 54 34 83 29
27 33 36 25 56 -5 13 -9 32 -9 42 0 28 38 61 70 61 17 0 38 -9 50 -22z"/>
</g>
</svg>
