<?xml version="1.0" standalone="no"?>
<!DOCTYPE svg PUBLIC "-//W3C//DTD SVG 20010904//EN"
 "http://www.w3.org/TR/2001/REC-SVG-20010904/DTD/svg10.dtd">
<svg version="1.0" xmlns="http://www.w3.org/2000/svg"
 width="100.000000pt" height="100.000000pt" viewBox="0 0 100.000000 100.000000"
 preserveAspectRatio="xMidYMid meet">
<metadata>
Created by potrace 1.16, written by Peter Selinger 2001-2019
</metadata>
<g transform="translate(0.000000,100.000000) scale(0.100000,-0.100000)"
fill="#000000" stroke="none">
<path d="M236 798 c-3 -7 -7 -36 -10 -64 -4 -48 -3 -53 30 -85 l34 -33 0 -142
c0 -126 -2 -144 -20 -167 -11 -14 -20 -39 -20 -56 0 -21 -6 -33 -17 -37 -41
-12 -48 -22 -48 -60 l0 -39 315 0 315 0 0 39 c0 38 -7 48 -47 60 -12 4 -18 16
-18 37 0 17 -9 42 -20 56 -18 23 -20 41 -20 166 l0 141 34 36 c33 34 34 37 28
95 l-7 60 -47 3 c-40 3 -51 -1 -68 -21 -24 -28 -56 -26 -78 5 -19 26 -125 26
-144 0 -22 -31 -54 -33 -77 -6 -16 19 -31 24 -66 24 -28 0 -47 -5 -49 -12z
m80 -43 c14 -21 24 -25 68 -25 56 0 69 6 79 33 4 11 17 17 37 17 20 0 33 -6
37 -17 10 -27 23 -33 79 -33 44 0 54 4 68 25 30 45 65 24 52 -30 l-6 -25 -230
0 -230 0 -6 25 c-13 54 22 75 52 30z m377 -92 c4 -3 0 -14 -8 -23 -11 -12 -15
-49 -17 -150 l-3 -135 -165 0 -165 0 -3 135 c-2 101 -6 138 -17 150 -8 9 -12
20 -8 23 8 9 378 9 386 0z m-29 -329 c9 -3 16 -12 16 -20 0 -11 -33 -14 -180
-14 -149 0 -180 2 -180 14 0 8 6 17 13 19 18 8 312 8 331 1z m44 -99 l3 -25
-210 0 -211 0 0 23 c0 13 2 26 4 28 2 2 96 3 208 2 l203 -2 3 -26z m67 -75 c0
-13 -38 -15 -269 -18 -157 -1 -274 2 -279 7 -27 27 10 31 276 29 234 -3 272
-5 272 -18z"/>
</g>
</svg>
