<?xml version="1.0" standalone="no"?>
<!DOCTYPE svg PUBLIC "-//W3C//DTD SVG 20010904//EN"
 "http://www.w3.org/TR/2001/REC-SVG-20010904/DTD/svg10.dtd">
<svg version="1.0" xmlns="http://www.w3.org/2000/svg"
 width="100.000000pt" height="100.000000pt" viewBox="0 0 100.000000 100.000000"
 preserveAspectRatio="xMidYMid meet">
<metadata>
Created by potrace 1.16, written by Peter Selinger 2001-2019
</metadata>
<g transform="translate(0.000000,100.000000) scale(0.100000,-0.100000)"
fill="#000000" stroke="none">
<path d="M455 858 c-25 -19 -27 -25 -21 -69 6 -40 4 -48 -12 -53 -25 -8 -86
-73 -111 -119 -35 -64 -27 -141 20 -193 18 -19 18 -23 4 -50 l-15 -29 90 -3
c50 -1 130 -1 180 0 l90 3 -15 29 c-14 27 -14 31 4 50 47 52 55 129 20 193
-25 46 -86 111 -111 119 -16 5 -18 13 -12 53 6 44 4 50 -21 69 -15 12 -35 22
-45 22 -10 0 -30 -10 -45 -22z m63 -233 c7 -15 20 -25 33 -25 27 0 20 -24 -8
-28 -13 -2 -24 -13 -27 -28 -4 -13 -11 -24 -16 -24 -5 0 -12 11 -16 24 -3 15
-14 26 -27 28 -28 4 -35 28 -8 28 13 0 26 10 33 25 6 14 14 25 18 25 4 0 12
-11 18 -25z m100 -217 c-6 -18 -230 -18 -235 0 -4 9 24 12 117 12 93 0 121 -3
118 -12z"/>
<path d="M315 300 c-9 -15 18 -50 43 -56 12 -4 22 -10 22 -15 0 -9 -37 -16
-126 -22 -93 -7 -156 -50 -122 -83 10 -10 51 -11 191 -4 101 5 253 5 355 0
139 -7 180 -6 190 4 34 33 -29 76 -122 83 -89 6 -126 13 -126 22 0 5 10 11 23
15 24 6 51 41 42 56 -7 12 -363 12 -370 0z"/>
</g>
</svg>
