<?xml version="1.0" standalone="no"?>
<!DOCTYPE svg PUBLIC "-//W3C//DTD SVG 20010904//EN"
 "http://www.w3.org/TR/2001/REC-SVG-20010904/DTD/svg10.dtd">
<svg version="1.0" xmlns="http://www.w3.org/2000/svg"
 width="100.000000pt" height="100.000000pt" viewBox="0 0 100.000000 100.000000"
 preserveAspectRatio="xMidYMid meet">
<metadata>
Created by potrace 1.16, written by Peter Selinger 2001-2019
</metadata>
<g transform="translate(0.000000,100.000000) scale(0.100000,-0.100000)"
fill="#000000" stroke="none">
<path d="M425 820 c-16 -16 -32 -30 -35 -30 -4 0 -19 11 -34 25 -15 14 -36 25
-47 25 -20 0 -22 -8 -19 -71 1 -21 -3 -40 -9 -43 -6 -4 -30 -39 -53 -79 -108
-183 -129 -258 -88 -309 14 -19 31 -28 50 -28 16 0 32 -4 35 -10 14 -23 52 -7
110 48 67 62 140 122 149 122 3 0 6 -13 6 -29 0 -30 -35 -89 -79 -130 -58 -56
-83 -98 -84 -148 l-2 -48 228 -3 227 -2 0 142 c-1 162 -13 230 -60 325 -33 66
-80 110 -148 139 -38 15 -38 35 -1 45 24 6 23 6 -6 13 -16 4 -35 9 -42 11 -6
2 -17 16 -25 32 -18 38 -38 39 -73 3z m-73 -160 c-3 -31 -20 -50 -43 -50 -24
0 -25 36 -2 62 23 25 49 19 45 -12z m-134 -238 c3 -17 -2 -22 -17 -22 -14 0
-21 6 -21 18 0 38 33 41 38 4z"/>
<path d="M665 720 c3 -5 8 -10 11 -10 2 0 4 5 4 10 0 6 -5 10 -11 10 -5 0 -7
-4 -4 -10z"/>
<path d="M690 701 c0 -5 4 -11 9 -13 11 -4 81 -114 81 -128 0 -5 4 -18 9 -28
28 -53 58 -280 48 -362 -5 -42 -3 -50 10 -50 32 0 1 352 -38 422 -5 10 -9 23
-9 29 0 19 -89 139 -104 139 -3 0 -6 -4 -6 -9z"/>
</g>
</svg>
