<?xml version="1.0" standalone="no"?>
<!DOCTYPE svg PUBLIC "-//W3C//DTD SVG 20010904//EN"
 "http://www.w3.org/TR/2001/REC-SVG-20010904/DTD/svg10.dtd">
<svg version="1.0" xmlns="http://www.w3.org/2000/svg"
 width="100.000000pt" height="100.000000pt" viewBox="0 0 100.000000 100.000000"
 preserveAspectRatio="xMidYMid meet">
<metadata>
Created by potrace 1.16, written by Peter Selinger 2001-2019
</metadata>
<g transform="translate(0.000000,100.000000) scale(0.100000,-0.100000)"
fill="#000000" stroke="none">
<path d="M457 862 c-21 -23 -22 -52 -2 -78 19 -25 19 -52 -2 -152 -20 -97 -29
-100 -61 -22 -40 95 -45 122 -34 154 7 18 12 38 12 44 0 19 -38 52 -60 52 -26
0 -60 -34 -60 -59 0 -11 11 -32 25 -47 23 -24 25 -35 25 -113 0 -76 -10 -125
-23 -111 -3 3 -26 37 -51 77 -41 64 -46 77 -40 111 7 45 -12 72 -52 72 -27 0
-64 -32 -64 -56 0 -9 14 -29 32 -46 26 -25 35 -45 54 -131 13 -56 23 -113 24
-127 0 -14 9 -36 19 -50 17 -21 23 -23 43 -13 85 41 225 58 345 43 86 -11 124
-20 171 -43 20 -10 26 -8 43 13 10 14 19 36 19 50 1 14 11 71 24 127 19 86 28
106 54 131 18 17 32 37 32 46 0 24 -37 56 -64 56 -40 0 -59 -27 -52 -72 6 -34
1 -47 -40 -111 -25 -40 -48 -74 -51 -77 -13 -14 -23 35 -23 111 0 78 2 89 25
113 14 15 25 36 25 47 0 25 -34 59 -60 59 -22 0 -60 -33 -60 -52 0 -6 5 -26
12 -44 11 -32 6 -59 -34 -154 -32 -78 -41 -75 -61 22 -21 100 -21 127 -2 152
46 60 -38 133 -88 78z"/>
<path d="M325 360 c-38 -11 -73 -19 -77 -19 -5 -1 -8 -7 -8 -13 0 -10 59 -13
260 -13 201 0 260 3 260 13 0 6 -2 12 -4 12 -2 0 -39 9 -82 20 -102 26 -252
26 -349 0z"/>
<path d="M252 272 c-6 -18 -1 -21 56 -37 80 -20 200 -27 287 -16 111 15 157
29 153 48 -3 13 -37 15 -247 16 -191 2 -245 -1 -249 -11z"/>
<path d="M226 214 c-10 -26 -7 -32 22 -37 15 -3 56 -12 92 -21 83 -20 237 -20
320 0 36 9 77 18 93 21 28 5 31 11 21 37 -4 11 -11 13 -23 6 -96 -51 -406 -51
-502 0 -12 7 -19 5 -23 -6z"/>
<path d="M245 130 c19 -21 75 -28 75 -10 0 6 -13 10 -29 10 -17 0 -33 5 -36
10 -3 6 -11 10 -17 10 -6 0 -3 -9 7 -20z"/>
<path d="M745 140 c-3 -5 -19 -10 -36 -10 -16 0 -29 -4 -29 -10 0 -18 56 -11
75 10 10 11 13 20 7 20 -6 0 -14 -4 -17 -10z"/>
<path d="M355 100 c8 -13 282 -13 290 0 4 6 -47 10 -145 10 -98 0 -149 -4
-145 -10z"/>
</g>
</svg>
