<?xml version="1.0" standalone="no"?>
<!DOCTYPE svg PUBLIC "-//W3C//DTD SVG 20010904//EN"
 "http://www.w3.org/TR/2001/REC-SVG-20010904/DTD/svg10.dtd">
<svg version="1.0" xmlns="http://www.w3.org/2000/svg"
 width="100.000000pt" height="100.000000pt" viewBox="0 0 100.000000 100.000000"
 preserveAspectRatio="xMidYMid meet">
<metadata>
Created by potrace 1.16, written by Peter Selinger 2001-2019
</metadata>
<g transform="translate(0.000000,100.000000) scale(0.100000,-0.100000)"
fill="#000000" stroke="none">
<path d="M457 862 c-21 -23 -22 -52 -2 -78 19 -25 19 -52 -2 -152 -20 -97 -29
-100 -61 -22 -40 95 -45 122 -34 154 7 18 12 38 12 44 0 19 -38 52 -60 52 -26
0 -60 -34 -60 -59 0 -11 11 -32 25 -47 23 -24 25 -35 25 -113 0 -76 -10 -125
-23 -111 -3 3 -26 37 -51 77 -41 64 -46 77 -40 111 7 45 -12 72 -52 72 -27 0
-64 -32 -64 -56 0 -9 14 -29 32 -46 26 -25 35 -45 54 -131 13 -56 23 -112 24
-125 0 -13 18 -48 39 -79 l40 -55 -20 -51 c-11 -27 -19 -64 -17 -81 3 -30 6
-31 68 -42 36 -7 130 -12 210 -12 80 0 174 5 210 12 62 11 65 12 68 42 2 17
-6 54 -17 81 l-20 51 40 55 c21 31 39 66 39 79 1 13 11 69 24 125 19 86 28
106 54 131 18 17 32 37 32 46 0 24 -37 56 -64 56 -40 0 -59 -27 -52 -72 6 -34
1 -47 -40 -111 -25 -40 -48 -74 -51 -77 -13 -14 -23 35 -23 111 0 78 2 89 25
113 14 15 25 36 25 47 0 25 -34 59 -60 59 -22 0 -60 -33 -60 -52 0 -6 5 -26
12 -44 10 -29 8 -42 -16 -106 -49 -132 -56 -134 -79 -26 -21 100 -21 127 -2
152 46 60 -38 133 -88 78z m63 -27 c15 -18 5 -35 -20 -35 -10 0 -22 5 -25 10
-7 11 12 40 25 40 4 0 13 -7 20 -15z m-190 -35 c0 -13 -7 -20 -20 -20 -13 0
-20 7 -20 20 0 13 7 20 20 20 13 0 20 -7 20 -20z m380 0 c0 -13 -7 -20 -20
-20 -13 0 -20 7 -20 20 0 13 7 20 20 20 13 0 20 -7 20 -20z m-552 -63 c4 -20
-25 -34 -40 -19 -15 15 -1 44 19 40 10 -2 19 -11 21 -21z m730 0 c4 -20 -25
-34 -40 -19 -15 15 -1 44 19 40 10 -2 19 -11 21 -21z m-370 -129 c6 -29 15
-72 18 -95 l7 -43 -43 0 -43 0 7 43 c11 75 29 147 36 147 4 0 12 -24 18 -52z
m-137 -61 c20 -59 21 -70 9 -78 -8 -5 -24 -8 -35 -7 -17 3 -20 12 -23 68 -4
74 5 123 17 100 5 -8 19 -46 32 -83z m289 -4 c0 -75 -5 -83 -47 -75 -29 5 -29
8 4 99 31 88 43 81 43 -24z m-431 -19 c39 -57 40 -74 2 -74 -32 0 -35 5 -46
84 -8 57 1 55 44 -10z m566 9 c-10 -75 -14 -83 -41 -83 -39 0 -38 24 1 79 20
28 39 51 42 51 2 0 1 -21 -2 -47z m-148 -112 c57 -4 105 -10 109 -13 3 -4 1
-15 -5 -26 -10 -19 -22 -20 -261 -20 -239 0 -251 1 -261 20 -6 11 -8 23 -4 26
16 16 273 24 422 13z m51 -116 c3 -19 -3 -20 -208 -20 -185 0 -210 2 -210 16
0 9 3 19 7 23 4 3 97 5 207 4 192 -3 201 -4 204 -23z m-25 -61 c42 -6 47 -10
58 -41 6 -19 8 -37 4 -41 -9 -9 -481 -9 -490 0 -4 4 -2 22 5 42 9 29 17 36 43
39 55 7 332 7 380 1z"/>
</g>
</svg>
