<?xml version="1.0" standalone="no"?>
<!DOCTYPE svg PUBLIC "-//W3C//DTD SVG 20010904//EN"
 "http://www.w3.org/TR/2001/REC-SVG-20010904/DTD/svg10.dtd">
<svg version="1.0" xmlns="http://www.w3.org/2000/svg"
 width="100.000000pt" height="100.000000pt" viewBox="0 0 100.000000 100.000000"
 preserveAspectRatio="xMidYMid meet">
<metadata>
Created by potrace 1.16, written by Peter Selinger 2001-2019
</metadata>
<g transform="translate(0.000000,100.000000) scale(0.100000,-0.100000)"
fill="#000000" stroke="none">
<path d="M237 803 c-4 -3 -7 -31 -7 -62 l0 -56 270 0 271 0 -3 60 -3 60 -47 3
c-37 2 -50 -1 -67 -19 -28 -30 -57 -31 -76 -2 -13 20 -24 23 -75 23 -51 0 -62
-3 -75 -23 -18 -29 -48 -28 -75 1 -15 16 -32 22 -64 22 -23 0 -46 -3 -49 -7z"/>
<path d="M255 661 c-3 -6 4 -15 15 -21 19 -10 20 -20 20 -164 0 -140 -2 -154
-20 -171 -12 -11 -20 -31 -20 -52 0 -23 -5 -35 -17 -39 -41 -12 -48 -22 -48
-60 l0 -39 315 0 315 0 0 39 c0 38 -7 48 -47 60 -13 4 -18 16 -18 39 0 21 -8
41 -20 52 -18 17 -20 31 -20 171 0 144 1 154 20 164 46 24 2 30 -230 30 -140
0 -241 -4 -245 -9z m425 -31 c0 -6 -67 -10 -180 -10 -113 0 -180 4 -180 10 0
6 67 10 180 10 113 0 180 -4 180 -10z m5 -290 c-8 -13 -362 -13 -370 0 -4 7
60 10 185 10 125 0 189 -3 185 -10z m25 -40 c0 -6 -77 -10 -210 -10 -133 0
-210 4 -210 10 0 6 77 10 210 10 133 0 210 -4 210 -10z m20 -90 c0 -6 -83 -10
-230 -10 -147 0 -230 4 -230 10 0 6 83 10 230 10 147 0 230 -4 230 -10z"/>
</g>
</svg>
